<?xml version="1.0" encoding="UTF-8" standalone="no"?>
<svg width="352px" height="149px" viewBox="0 0 352 149" version="1.1" xmlns="http://www.w3.org/2000/svg" xmlns:xlink="http://www.w3.org/1999/xlink">
    <!-- Generator: Sketch 3.8.3 (29802) - http://www.bohemiancoding.com/sketch -->
    <title>city_back</title>
    <desc>Created with Sketch.</desc>
    <defs>
        <path d="M143.814633,17.9618016 C136.157029,18.1500904 130,24.4202762 130,32.1276596 C130,39.9553727 136.343772,46.2978723 144.169211,46.2978723 L194.830789,46.2978723 C202.652012,46.2978723 209,39.953652 209,32.1276596 C209,24.7233539 203.323947,18.6479343 196.086868,18.0123491 C195.054416,7.8942929 186.507624,0 176.117021,0 C168.944335,0 162.650264,3.76179751 159.100099,9.42010026 C157.608326,8.57046147 155.88212,8.08510638 154.042553,8.08510638 C148.510054,8.08510638 144.00291,12.4751753 143.814633,17.9618016 Z" id="path-1"></path>
        <mask id="mask-2" maskContentUnits="userSpaceOnUse" maskUnits="objectBoundingBox" x="0" y="0" width="79" height="46.2978723" fill="white">
            <use xlink:href="#path-1"></use>
        </mask>
    </defs>
    <g id="Bulk-Upload" stroke="none" stroke-width="1" fill="none" fill-rule="evenodd">
        <g id="02-Bulk-Loading-file" transform="translate(-323.000000, -192.000000)">
            <g id="city_back" transform="translate(324.000000, 192.000000)">
                <rect id="Rectangle-429" stroke="#D1DDE0" stroke-width="2" fill="#FFFFFF" x="0" y="134" width="350" height="14" rx="7"></rect>
                <rect id="Rectangle-416" stroke="#D1DDE0" stroke-width="2" fill="#FFFFFF" x="247" y="101" width="18" height="36"></rect>
                <rect id="Rectangle-416" stroke="#D1DDE0" stroke-width="2" fill="#FFFFFF" x="262" y="115" width="13" height="26"></rect>
                <rect id="Rectangle-416" stroke="#D1DDE0" stroke-width="2" fill="#FFFFFF" x="21" y="101" width="18" height="40"></rect>
                <rect id="Rectangle-416" stroke="#D1DDE0" stroke-width="2" fill="#FFFFFF" x="234" y="99" width="18" height="40"></rect>
                <rect id="Rectangle-416" stroke="#D1DDE0" stroke-width="2" fill="#FFFFFF" x="80" y="80" width="18" height="56"></rect>
                <rect id="Rectangle-416" stroke="#D1DDE0" stroke-width="2" fill="#FFFFFF" x="43" y="116" width="14" height="22"></rect>
                <rect id="Rectangle-416" stroke="#D1DDE0" stroke-width="2" fill="#FFFFFF" x="57" y="112" width="11" height="27"></rect>
                <g id="Group" transform="translate(298.000000, 101.000000)">
                    <path d="M1,1 C1,10.5 5.14194637,20 16.8481978,20 C28.5544493,20 30,14.0908451 30,11" id="Line" stroke="#D1DDE0" stroke-width="2" stroke-linecap="square"></path>
                    <rect id="Rectangle-447" fill="#D1DDE0" x="0" y="0" width="2" height="34"></rect>
                    <rect id="Rectangle-447" fill="#D1DDE0" x="0" y="22" width="38" height="2"></rect>
                    <rect id="Rectangle-447" fill="#FFFFFF" x="8" y="0" width="2" height="34"></rect>
                    <rect id="Rectangle-447" fill="#D1DDE0" x="0" y="2" width="8" height="2"></rect>
                    <rect id="Rectangle-447" fill="#D1DDE0" x="0" y="6" width="8" height="2"></rect>
                    <rect id="Rectangle-447" fill="#D1DDE0" x="0" y="10" width="8" height="2"></rect>
                    <rect id="Rectangle-447" fill="#D1DDE0" x="30" y="10" width="5" height="2"></rect>
                    <rect id="Rectangle-447" fill="#D1DDE0" x="30" y="13" width="5" height="2"></rect>
                    <rect id="Rectangle-447" fill="#D1DDE0" x="30" y="16" width="5" height="2"></rect>
                    <rect id="Rectangle-447" fill="#D1DDE0" x="10" y="0" width="2" height="34"></rect>
                    <rect id="Rectangle-447" fill="#D1DDE0" x="29" y="9" width="2" height="25"></rect>
                    <rect id="Rectangle-447" fill="#FFFFFF" x="34" y="0" width="2" height="34"></rect>
                    <rect id="Rectangle-447" fill="#D1DDE0" x="36" y="9" width="2" height="25"></rect>
                    <path d="M11,1 C11,10.5 14.7134692,20 25.2087291,20 C35.703989,20 37,14.4628811 37,10" id="Line" stroke="#D1DDE0" stroke-width="2" stroke-linecap="square"></path>
                </g>
                <polygon id="Rectangle-416" stroke="#D1DDE0" stroke-width="2" fill="#FFFFFF" points="54 123 59 123 59 128 63 128 63 140 54 140"></polygon>
                <polygon id="Rectangle-416" stroke="#D1DDE0" stroke-width="2" fill="#FFFFFF" transform="translate(96.500000, 128.500000) scale(-1, 1) translate(-96.500000, -128.500000) " points="92 120 97 120 97 125 101 125 101 137 92 137"></polygon>
                <use id="Combined-Shape" stroke="#D1DDE0" mask="url(#mask-2)" stroke-width="4" fill="#FFFFFF" xlink:href="#path-1"></use>
            </g>
        </g>
    </g>
</svg>