<?xml version="1.0" encoding="UTF-8" standalone="no"?>
<svg width="70px" height="36px" viewBox="0 0 70 36" version="1.1" xmlns="http://www.w3.org/2000/svg" xmlns:xlink="http://www.w3.org/1999/xlink">
    <!-- Generator: Sketch 3.8.3 (29802) - http://www.bohemiancoding.com/sketch -->
    <title>cloud_overlay</title>
    <desc>Created with Sketch.</desc>
    <defs></defs>
    <g id="Bulk-Upload" stroke="none" stroke-width="1" fill="none" fill-rule="evenodd">
        <g id="02-Bulk-Loading-file" transform="translate(-459.000000, -196.000000)">
            <g id="cloud_overlay" transform="translate(459.000000, 196.000000)">
                <path d="M1.91273171,35 C0.700971023,33.0736015 0,30.7928758 0,28.3479349 C0,21.5274415 5.45877459,15.9824815 12.2408594,15.8473303 C12.4083664,11.0068045 16.4017583,7.1339174 21.3035281,7.1339174 C22.9335238,7.1339174 24.4630733,7.56217189 25.7848981,8.31185317 C28.9306133,3.3192331 34.5076386,0 40.8631834,0 C50.068407,0 57.6404559,6.96307156 58.5574946,15.8884791 C64.9657063,16.422896 70,21.7957279 70,28.3479349 C70,30.792623 69.2986893,33.0734382 68.086503,35 L1.91273171,35 Z" id="Combined-Shape" fill="#FFFFFF"></path>
                <path d="M8.5,35 L63.5090904,35" id="Line" stroke="#D1DDE0" stroke-width="2" stroke-linecap="round"></path>
            </g>
        </g>
    </g>
</svg>