<?xml version="1.0" encoding="UTF-8" standalone="no"?>
<svg width="52px" height="91px" viewBox="0 0 52 91" version="1.1" xmlns="http://www.w3.org/2000/svg" xmlns:xlink="http://www.w3.org/1999/xlink">
    <!-- Generator: Sketch 3.8.3 (29802) - http://www.bohemiancoding.com/sketch -->
    <title>validating_back2</title>
    <desc>Created with Sketch.</desc>
    <defs></defs>
    <g id="Bulk-Upload" stroke="none" stroke-width="1" fill="none" fill-rule="evenodd" stroke-linecap="round" stroke-linejoin="round">
        <g id="04-Bulk-Validating-Data" transform="translate(-479.000000, -272.000000)" stroke="#D1DEE1" stroke-width="2" fill="#FFFFFF">
            <g id="validating_back2" transform="translate(480.000000, 273.000000)">
                <g id="Group-4" transform="translate(0.000000, 39.000000)">
                    <polygon id="Rectangle-185" points="0 10 25 0 25 30 0 40"></polygon>
                    <polygon id="Rectangle-185" points="0 10 25 20 25 50 0 40"></polygon>
                    <polygon id="Rectangle-185" points="25 0 50 10 50 40 25 30"></polygon>
                    <polygon id="Rectangle-185" points="25 20 50 10 50 40 25 50"></polygon>
                </g>
                <g id="Group-2">
                    <polygon id="Rectangle-185" points="0 10 25 0 25 30 0 40"></polygon>
                    <polygon id="Rectangle-185" points="0 10 25 20 25 50 0 40"></polygon>
                    <polygon id="Rectangle-185" points="25 0 50 10 50 40 25 30"></polygon>
                    <polygon id="Rectangle-185" points="25 20 50 10 50 40 25 50"></polygon>
                </g>
            </g>
        </g>
    </g>
</svg>